<svg preserveAspectRatio="none" overflow="visible" style="display: block;" width="48" height="48" viewBox="0 0 48 48" fill="none" xmlns="http://www.w3.org/2000/svg">
<g id="KakaoTalk">
<path id="Shape" d="M0 24C0 10.7452 10.7452 0 24 0C37.2548 0 48 10.7452 48 24C48 37.2548 37.2548 48 24 48C10.7452 48 0 37.2548 0 24Z" fill="#FFE812"/>
<path id="Shape_2" d="M24 11C15.1634 11 8 16.6482 8 23.6154C8 28.1198 10.9948 32.0723 15.4997 34.3042C15.2546 35.1494 13.9248 39.7417 13.8718 40.1025C13.8718 40.1025 13.84 40.3735 14.0155 40.4769C14.1911 40.5803 14.3975 40.5 14.3975 40.5C14.9009 40.4297 20.2349 36.6829 21.1582 36.0323C22.0805 36.1629 23.0302 36.2308 24 36.2308C32.8366 36.2308 40 30.5828 40 23.6154C40 16.6482 32.8366 11 24 11Z" fill="#381F1F"/>
<path id="Shape_3" d="M17.5174 19.8462C18.0167 19.8463 18.4224 20.2515 18.4227 20.7495C18.4227 21.2478 18.0167 21.6537 17.5174 21.6538H16.077V27.1372C16.077 27.6233 15.6631 28.0189 15.1541 28.0191C14.645 28.0191 14.2303 27.6234 14.2303 27.1372V21.6538H12.7908C12.2913 21.6538 11.8846 21.2478 11.8846 20.7495C11.8849 20.2514 12.2916 19.8462 12.7908 19.8462H17.5174ZM20.6151 19.8462C21.2177 19.86 21.6897 20.3155 21.8455 20.7583L24.0526 26.5679C24.3333 27.4402 24.0893 27.7634 23.8348 27.8804C23.6506 27.9644 23.4504 28.0074 23.2479 28.0073C22.863 28.0073 22.5681 27.8505 22.4793 27.5991L22.0223 26.4028H19.2078L18.7508 27.6001C18.6623 27.8509 18.368 28.0072 17.9832 28.0073C17.7809 28.0075 17.5803 27.9644 17.3963 27.8804C17.1418 27.763 16.8973 27.4395 17.1776 26.5689L19.3856 20.7573C19.5412 20.3154 20.0138 19.8599 20.6151 19.8462ZM30.6668 19.8462C31.1758 19.8463 31.5895 20.2601 31.5897 20.7691V22.7534L34.1649 20.1782C34.2973 20.0457 34.48 19.9722 34.6776 19.9722C34.9077 19.9723 35.1391 20.0717 35.3123 20.2446C35.474 20.4062 35.5705 20.6148 35.5838 20.8306C35.5971 21.0482 35.5243 21.2475 35.3797 21.3921L33.2762 23.4956L35.5487 26.5054C35.622 26.6019 35.6755 26.7123 35.7059 26.8296C35.7364 26.947 35.7427 27.0699 35.7254 27.19C35.709 27.3098 35.6695 27.4255 35.6082 27.5298C35.5468 27.6343 35.465 27.7257 35.368 27.7983C35.2084 27.9197 35.0129 27.9853 34.8123 27.9849C34.6694 27.9854 34.5282 27.9528 34.4002 27.8892C34.2721 27.8254 34.1607 27.7322 34.075 27.6177L31.91 24.7495L31.5897 25.0698V27.0835C31.5894 27.3284 31.4923 27.5637 31.3192 27.7368C31.1461 27.9097 30.9114 28.0069 30.6668 28.0073C30.1578 28.0073 29.7441 27.5935 29.744 27.0845V20.7691C29.7441 20.2601 30.1578 19.8462 30.6668 19.8462ZM25.5965 19.8462C26.1157 19.8464 26.5378 20.2602 26.5379 20.7691V26.1919H28.4998C28.9877 26.1919 29.3846 26.5721 29.3846 27.0386C29.3846 27.505 28.9877 27.8843 28.4998 27.8843H25.5379C25.0503 27.884 24.6542 27.5049 24.6541 27.0386V20.7691C24.6543 20.2601 25.077 19.8462 25.5965 19.8462ZM19.6932 24.7681H21.5369L20.6151 22.1489L19.6932 24.7681Z" fill="#FFE812"/>
</g>
</svg>
